RBDS021runT45_grf
version=1
nRows=30
nColumns=19
inDegrees=no
endheader
time	ground_force_r_vx	ground_force_r_vy	ground_force_r_vz	ground_force_r_px	ground_force_r_py	ground_force_r_pz	ground_force_r_mx	ground_force_r_my	ground_force_r_mz	ground_force_l_vx	ground_force_l_vy	ground_force_l_vz	ground_force_l_px	ground_force_l_py	ground_force_l_pz	ground_force_l_mx	ground_force_l_my	ground_force_l_mz
     22.49800000	    200.82433051	    587.93938941	      7.10342421	      1.89130118	      0.00000000	      1.11161523	      0.00000000	     -0.82245138	     -0.00000000	      0.00000000	      0.00000000	      0.00000000	      0.00000000	      0.00000000	      0.00000000	      0.00000000	      0.00000000	      0.00000000
     22.49900000	    197.02547056	    562.69292022	      8.40223712	      1.88964800	      0.00000000	      1.11170362	      0.00000000	     -0.79883456	     -0.00000000	      0.00000000	      0.00000000	      0.00000000	      0.00000000	      0.00000000	      0.00000000	      0.00000000	      0.00000000	      0.00000000
     22.50000000	    193.22661061	    537.44645103	      9.70105003	      1.88799481	      0.00000000	      1.11179202	      0.00000000	     -0.77521773	     -0.00000000	      0.00000000	      0.00000000	      0.00000000	      0.00000000	      0.00000000	      0.00000000	      0.00000000	      0.00000000	      0.00000000
     22.50100000	    189.06872877	    513.29650212	     10.92671279	      1.88664476	      0.00000000	      1.11188226	      0.00000000	     -0.73449719	     -0.00000000	      0.00000000	      0.00000000	      0.00000000	      0.00000000	      0.00000000	      0.00000000	      0.00000000	      0.00000000	      0.00000000
     22.50200000	    184.91084693	    489.14655322	     12.15237555	      1.88529472	      0.00000000	      1.11197251	      0.00000000	     -0.69377665	     -0.00000000	      0.00000000	      0.00000000	      0.00000000	      0.00000000	      0.00000000	      0.00000000	      0.00000000	      0.00000000	      0.00000000
     22.50300000	    180.75296509	    464.99660431	     13.37803831	      1.88394467	      0.00000000	      1.11206276	      0.00000000	     -0.65305610	     -0.00000000	      0.00000000	      0.00000000	      0.00000000	      0.00000000	      0.00000000	      0.00000000	      0.00000000	      0.00000000	      0.00000000
     22.50400000	    176.44263059	    441.72927493	     14.55381274	      1.88278581	      0.00000000	      1.11215293	      0.00000000	     -0.60236011	     -0.00000000	      0.00000000	      0.00000000	      0.00000000	      0.00000000	      0.00000000	      0.00000000	      0.00000000	      0.00000000	      0.00000000
     22.50500000	    172.05606975	    418.90325532	     15.70464299	      1.88172256	      0.00000000	      1.11224307	      0.00000000	     -0.54667640	     -0.00000000	      0.00000000	      0.00000000	      0.00000000	      0.00000000	      0.00000000	      0.00000000	      0.00000000	      0.00000000	      0.00000000
     22.50600000	    167.66950891	    396.07723571	     16.85547325	      1.88065930	      0.00000000	      1.11233321	      0.00000000	     -0.49099269	     -0.00000000	      0.00000000	      0.00000000	      0.00000000	      0.00000000	      0.00000000	      0.00000000	      0.00000000	      0.00000000	      0.00000000
     22.50700000	    163.24929442	    373.75784315	     17.98087138	      1.87968417	      0.00000000	      1.11242267	      0.00000000	     -0.43119208	     -0.00000000	      0.00000000	      0.00000000	      0.00000000	      0.00000000	      0.00000000	      0.00000000	      0.00000000	      0.00000000	      0.00000000
     22.50800000	    158.76177262	    352.45170467	     19.05540529	      1.87888530	      0.00000000	      1.11251078	      0.00000000	     -0.36315769	     -0.00000000	      0.00000000	      0.00000000	      0.00000000	      0.00000000	      0.00000000	      0.00000000	      0.00000000	      0.00000000	      0.00000000
     22.50900000	    154.27425082	    331.14556620	     20.12993919	      1.87808643	      0.00000000	      1.11259888	      0.00000000	     -0.29512330	     -0.00000000	      0.00000000	      0.00000000	      0.00000000	      0.00000000	      0.00000000	      0.00000000	      0.00000000	      0.00000000	      0.00000000
     22.51000000	    149.78672902	    309.83942772	     21.20447309	      1.87728756	      0.00000000	      1.11268698	      0.00000000	     -0.22708890	     -0.00000000	      0.00000000	      0.00000000	      0.00000000	      0.00000000	      0.00000000	      0.00000000	      0.00000000	      0.00000000	      0.00000000
     22.51100000	    145.31933027	    290.21294223	     22.20107426	      1.87672536	      0.00000000	      1.11277125	      0.00000000	     -0.14968542	     -0.00000000	      0.00000000	      0.00000000	      0.00000000	      0.00000000	      0.00000000	      0.00000000	      0.00000000	      0.00000000	      0.00000000
     22.51200000	    140.85193152	    270.58645673	     23.19767544	      1.87616315	      0.00000000	      1.11285553	      0.00000000	     -0.07228193	     -0.00000000	      0.00000000	      0.00000000	      0.00000000	      0.00000000	      0.00000000	      0.00000000	      0.00000000	      0.00000000	      0.00000000
     22.51300000	    136.38453277	    250.95997124	     24.19427661	      1.87560095	      0.00000000	      1.11293980	      0.00000000	      0.00512155	     -0.00000000	      0.00000000	      0.00000000	      0.00000000	      0.00000000	      0.00000000	      0.00000000	      0.00000000	      0.00000000	      0.00000000
     22.51400000	    132.00437522	    232.53326742	     25.13760187	      1.87517521	      0.00000000	      1.11302049	      0.00000000	      0.08662419	     -0.00000000	      0.00000000	      0.00000000	      0.00000000	      0.00000000	      0.00000000	      0.00000000	      0.00000000	      0.00000000	      0.00000000
     22.51500000	    127.66783826	    214.70645444	     26.05428917	      1.87481772	      0.00000000	      1.11309938	      0.00000000	      0.17017641	     -0.00000000	      0.00000000	      0.00000000	      0.00000000	      0.00000000	      0.00000000	      0.00000000	      0.00000000	      0.00000000	      0.00000000
     22.51600000	    123.33130130	    196.87964147	     26.97097648	      1.87446023	      0.00000000	      1.11317827	      0.00000000	      0.25372863	     -0.00000000	      0.00000000	      0.00000000	      0.00000000	      0.00000000	      0.00000000	      0.00000000	      0.00000000	      0.00000000	      0.00000000
     22.51700000	    119.07075999	    179.67870370	     27.86026804	      1.87415937	      0.00000000	      1.11325495	      0.00000000	      0.33822803	     -0.00000000	      0.00000000	      0.00000000	      0.00000000	      0.00000000	      0.00000000	      0.00000000	      0.00000000	      0.00000000	      0.00000000
     22.51800000	    114.96221000	    163.72951636	     28.69476812	      1.87397179	      0.00000000	      1.11332721	      0.00000000	      0.42462179	     -0.00000000	      0.00000000	      0.00000000	      0.00000000	      0.00000000	      0.00000000	      0.00000000	      0.00000000	      0.00000000	      0.00000000
     22.51900000	    110.85366000	    147.78032901	     29.52926819	      1.87378422	      0.00000000	      1.11339947	      0.00000000	      0.51101556	     -0.00000000	      0.00000000	      0.00000000	      0.00000000	      0.00000000	      0.00000000	      0.00000000	      0.00000000	      0.00000000	      0.00000000
     22.52000000	    106.74511000	    131.83114166	     30.36376826	      1.87359664	      0.00000000	      1.11347173	      0.00000000	      0.59740932	     -0.00000000	      0.00000000	      0.00000000	      0.00000000	      0.00000000	      0.00000000	      0.00000000	      0.00000000	      0.00000000	      0.00000000
     22.52100000	    102.94536369	    117.79445832	     31.11377255	      1.87354298	      0.00000000	      1.11353647	      0.00000000	      0.68341589	     -0.00000000	      0.00000000	      0.00000000	      0.00000000	      0.00000000	      0.00000000	      0.00000000	      0.00000000	      0.00000000	      0.00000000
     22.52200000	     99.14561738	    103.75777499	     31.86377685	      1.87348933	      0.00000000	      1.11360120	      0.00000000	      0.76942245	     -0.00000000	      0.00000000	      0.00000000	      0.00000000	      0.00000000	      0.00000000	      0.00000000	      0.00000000	      0.00000000	      0.00000000
     22.52300000	     95.34587107	     89.72109165	     32.61378114	      1.87343567	      0.00000000	      1.11366593	      0.00000000	      0.85542901	     -0.00000000	      0.00000000	      0.00000000	      0.00000000	      0.00000000	      0.00000000	      0.00000000	      0.00000000	      0.00000000	      0.00000000
     22.52400000	     75.26343118	     68.03375776	     26.29102606	      1.49873423	      0.00000000	      0.89095001	      0.00000000	      0.70727829	     -0.00000000	      0.00000000	      0.00000000	      0.00000000	      0.00000000	      0.00000000	      0.00000000	      0.00000000	      0.00000000	      0.00000000
     22.52500000	     47.03964449	     42.52109860	     16.43189129	      0.93670889	      0.00000000	      0.55684376	      0.00000000	      0.44204893	     -0.00000000	      0.00000000	      0.00000000	      0.00000000	      0.00000000	      0.00000000	      0.00000000	      0.00000000	      0.00000000	      0.00000000
     22.52600000	     18.81585779	     17.00843944	      6.57275651	      0.37468356	      0.00000000	      0.22273750	      0.00000000	      0.17681957	     -0.00000000	      0.00000000	      0.00000000	      0.00000000	      0.00000000	      0.00000000	      0.00000000	      0.00000000	      0.00000000	      0.00000000
     22.52700000	      0.00000000	      0.00000000	      0.00000000	      0.00000000	      0.00000000	      0.00000000	      0.00000000	      0.00000000	      0.00000000	      0.00000000	      0.00000000	      0.00000000	      0.00000000	      0.00000000	      0.00000000	      0.00000000	      0.00000000	      0.00000000
